<svg xmlns="http://www.w3.org/2000/svg" viewBox="0 0 640 400">
  <rect width="640" height="400" fill="#F2F4F7"/>
  <rect x="54" y="48" width="532" height="304" rx="12" fill="#FFFFFF" stroke="#D6D9DC"/>
  <g transform="translate(78 72)">
    <path d="M42 224V104l92-58 92 58v120z" fill="#DCE6EC" stroke="#081D2D" stroke-width="4"/>
    <path d="M100 224v-64c0-24 15-42 34-42s34 18 34 42v64" fill="#FFFFFF" stroke="#081D2D" stroke-width="4"/>
    <path d="M112 82V38h44v44" fill="#E6E4E0" stroke="#081D2D" stroke-width="4"/>
    <path d="M134 10v28M122 23h24" stroke="#7B2434" stroke-width="5" stroke-linecap="round"/>
    <circle cx="80" cy="134" r="18" fill="#FFFFFF" stroke="#081D2D" stroke-width="4"/>
    <circle cx="188" cy="134" r="18" fill="#FFFFFF" stroke="#081D2D" stroke-width="4"/>
  </g>
  <g transform="translate(350 92)">
    <rect width="142" height="186" rx="7" fill="#E6E4E0" stroke="#081D2D" stroke-width="4"/>
    <rect x="18" y="24" width="106" height="16" rx="5" fill="#081D2D"/>
    <rect x="18" y="64" width="86" height="8" rx="4" fill="#8B979E"/>
    <rect x="18" y="89" width="102" height="8" rx="4" fill="#8B979E"/>
    <rect x="18" y="114" width="72" height="8" rx="4" fill="#8B979E"/>
    <rect x="18" y="145" width="38" height="24" rx="5" fill="#7B2434"/>
    <rect x="68" y="145" width="54" height="24" rx="5" fill="#DCE6EC"/>
  </g>
  <circle cx="515" cy="296" r="30" fill="#DCE6EC" stroke="#081D2D" stroke-width="4"/>
  <path d="M501 296l9 9 19-22" fill="none" stroke="#7B2434" stroke-width="6" stroke-linecap="round" stroke-linejoin="round"/>
</svg>