<svg xmlns="http://www.w3.org/2000/svg" viewBox="0 0 1200 760" role="img" aria-labelledby="title desc">
<title id="title">From administrative clutter to calm process</title>
<desc id="desc">A House of Carol editorial illustration showing scattered paperwork becoming an ordered flow and tidy working system.</desc>
<rect width="1200" height="760" fill="#f5f0e8"/>
<circle cx="1030" cy="150" r="210" fill="#dbeaf8"/>
<circle cx="1030" cy="150" r="128" fill="#fffdf8"/>
<g opacity=".6" stroke="#79a9d8" stroke-width="6">
  <path d="M1030 0v98"/><path d="M1190 40l-80 88"/><path d="M1198 190h-112"/><path d="M1118 315l-64-96"/><path d="M930 316l52-96"/><path d="M850 202h116"/><path d="M872 62l94 82"/>
</g>
<path d="M0 620C150 560 240 590 350 620S590 710 760 650s300-150 440-118v228H0Z" fill="#163f75"/>
<path d="M0 660c180-30 260 10 390 40 160 36 310 32 450-4 128-34 244-76 360-70v134H0Z" fill="#0b2340" opacity=".55"/>

<!-- scattered admin -->
<g transform="translate(40 110)">
  <g fill="#fffdf8" stroke="#c8c1b6" stroke-width="3">
    <rect x="0" y="160" width="150" height="98" transform="rotate(-10 75 209)"/>
    <rect x="100" y="52" width="170" height="120" transform="rotate(8 185 112)"/>
    <rect x="42" y="300" width="190" height="125" transform="rotate(5 137 362)"/>
    <rect x="202" y="230" width="126" height="160" transform="rotate(-6 265 310)"/>
    <rect x="232" y="410" width="140" height="95" transform="rotate(11 302 457)"/>
  </g>
  <g stroke="#79a9d8" stroke-width="5" opacity=".9">
    <path d="M24 186h100M24 208h84M122 84h118M122 108h76M72 332h132M72 356h94M232 264h70M232 288h48M256 440h86M256 462h56"/>
  </g>
  <g fill="#2f6fb5">
    <rect x="36" y="226" width="18" height="18"/><rect x="77" y="226" width="18" height="18"/><rect x="118" y="226" width="18" height="18"/>
    <circle cx="152" cy="137" r="9"/><circle cx="183" cy="137" r="9"/><circle cx="214" cy="137" r="9"/>
  </g>
  <path d="M58 468c82-48 130-48 206-18 52 21 78 15 116-4" fill="none" stroke="#17191c" stroke-width="7" stroke-linecap="round" stroke-dasharray="1 22"/>
</g>

<!-- transformation path -->
<g fill="none" stroke="#2f6fb5" stroke-width="10" stroke-linecap="square" stroke-linejoin="round">
  <path d="M365 370H465L505 330H610"/>
  <path d="M610 330H710L750 370H844"/>
</g>
<g fill="#fffdf8" stroke="#163f75" stroke-width="5">
  <circle cx="465" cy="370" r="18"/><circle cx="610" cy="330" r="18"/><circle cx="750" cy="370" r="18"/>
</g>

<!-- organised station -->
<g transform="translate(790 280)">
  <rect x="0" y="180" width="350" height="24" fill="#17191c"/>
  <rect x="35" y="58" width="250" height="140" fill="#fffdf8" stroke="#163f75" stroke-width="5"/>
  <rect x="60" y="82" width="92" height="92" fill="#dbeaf8"/>
  <path d="M76 105h58M76 126h58M76 147h42" stroke="#2f6fb5" stroke-width="6"/>
  <rect x="176" y="82" width="82" height="18" fill="#163f75"/>
  <rect x="176" y="116" width="82" height="18" fill="#79a9d8"/>
  <rect x="176" y="150" width="82" height="18" fill="#17191c"/>
  <rect x="295" y="88" width="34" height="110" fill="#163f75"/>
  <rect x="306" y="66" width="12" height="22" fill="#17191c"/>
  <path d="M22 204v92M310 204v92" stroke="#17191c" stroke-width="14"/>
  <rect x="160" y="16" width="92" height="28" fill="#2f6fb5"/>
  <rect x="172" y="0" width="68" height="18" fill="#163f75"/>
</g>

<!-- restrained house motif -->
<g transform="translate(918 74)" fill="none" stroke="#163f75" stroke-width="7">
  <path d="M0 84 78 18l78 66v96H0Z"/>
  <path d="M62 180v-62h34v62M40 96h26v26H40M92 96h26v26H92"/>
</g>

<!-- editorial corner rules -->
<path d="M20 28h170M20 50h108" stroke="#163f75" stroke-width="8"/>
<path d="M1010 706h166M1064 684h112" stroke="#79a9d8" stroke-width="8"/>
</svg>